<?xml version="1.0" standalone="no"?><svg xmlns="http://www.w3.org/2000/svg" viewBox="0 0 1440 320"><path fill="#00cba9" fill-opacity="1" d="M0,160L13.3,144C26.7,128,53,96,80,96C106.7,96,133,128,160,154.7C186.7,181,213,203,240,208C266.7,213,293,203,320,192C346.7,181,373,171,400,154.7C426.7,139,453,117,480,106.7C506.7,96,533,96,560,122.7C586.7,149,613,203,640,213.3C666.7,224,693,192,720,154.7C746.7,117,773,75,800,90.7C826.7,107,853,181,880,197.3C906.7,213,933,171,960,165.3C986.7,160,1013,192,1040,181.3C1066.7,171,1093,117,1120,106.7C1146.7,96,1173,128,1200,133.3C1226.7,139,1253,117,1280,90.7C1306.7,64,1333,32,1360,32C1386.7,32,1413,64,1427,80L1440,96L1440,320L1426.7,320C1413.3,320,1387,320,1360,320C1333.3,320,1307,320,1280,320C1253.3,320,1227,320,1200,320C1173.3,320,1147,320,1120,320C1093.3,320,1067,320,1040,320C1013.3,320,987,320,960,320C933.3,320,907,320,880,320C853.3,320,827,320,800,320C773.3,320,747,320,720,320C693.3,320,667,320,640,320C613.3,320,587,320,560,320C533.3,320,507,320,480,320C453.3,320,427,320,400,320C373.3,320,347,320,320,320C293.3,320,267,320,240,320C213.3,320,187,320,160,320C133.3,320,107,320,80,320C53.3,320,27,320,13,320L0,320Z"></path></svg>